<?xml version="1.0" standalone="no"?>
<!DOCTYPE svg PUBLIC "-//W3C//DTD SVG 20010904//EN"
 "http://www.w3.org/TR/2001/REC-SVG-20010904/DTD/svg10.dtd">
<svg version="1.0" xmlns="http://www.w3.org/2000/svg"
 width="2310.000000pt" height="1342.000000pt" viewBox="0 0 2310.000000 1342.000000"
 preserveAspectRatio="xMidYMid meet">

<g transform="translate(0.000000,1342.000000) scale(0.100000,-0.100000)"
fill="#000000" stroke="none">
<path d="M11648 13410 c-3 -8 -18 -78 -33 -155 -63 -323 -175 -723 -271 -967
-74 -189 -167 -351 -241 -421 l-29 -27 61 -123 c156 -313 268 -826 304 -1402
14 -206 21 -544 12 -549 -9 -6 -188 54 -294 98 -562 234 -991 608 -1219 1060
-28 56 -66 137 -83 180 l-33 80 -15 -30 c-24 -48 -102 -263 -130 -359 -83
-283 -112 -471 -111 -725 0 -386 74 -775 205 -1072 35 -79 187 -358 208 -381
4 -4 0 24 -10 62 -59 231 -52 521 18 746 26 83 110 265 123 265 4 0 32 -33 63
-72 334 -442 916 -777 1535 -884 56 -9 102 -20 102 -24 0 -14 -224 -132 -322
-170 -278 -107 -632 -132 -943 -66 -38 8 -79 18 -90 22 -11 4 22 -37 73 -90
100 -106 142 -158 174 -219 l19 -39 -33 7 c-68 14 -267 84 -377 134 -213 95
-521 296 -563 367 -14 25 -23 32 -29 23 -5 -9 -27 5 -76 48 -180 161 -372 382
-506 583 l-70 105 7 -165 c7 -182 26 -370 57 -558 11 -68 19 -125 17 -127 -10
-10 -145 95 -161 125 -25 47 -17 134 17 203 14 28 24 53 22 54 -2 2 -36 -13
-77 -34 -122 -63 -165 -145 -139 -267 16 -80 69 -159 184 -276 57 -58 109
-115 115 -127 27 -54 4 -83 -68 -83 -47 0 -89 31 -126 94 -35 60 -90 110 -172
155 -40 22 -73 38 -73 36 0 -3 21 -37 47 -76 87 -135 106 -230 58 -288 -33
-38 -78 -53 -127 -42 -97 22 -159 94 -160 183 0 30 5 72 12 93 16 48 7 111
-24 173 -26 51 -116 175 -122 169 -2 -2 3 -20 11 -40 20 -47 19 -110 -1 -150
-9 -18 -39 -56 -65 -85 -54 -59 -64 -84 -56 -142 7 -58 42 -123 110 -207 33
-41 57 -76 54 -79 -4 -4 -384 76 -440 92 -11 3 -25 21 -33 39 -12 29 -12 39 2
77 8 24 18 72 21 108 5 55 2 76 -19 127 -28 68 -58 110 -103 141 -32 23 -121
50 -130 40 -3 -3 5 -23 20 -43 14 -21 30 -56 37 -78 11 -35 9 -47 -11 -101
-64 -168 -71 -256 -28 -358 16 -37 27 -72 25 -77 -6 -18 -149 39 -207 82 -77
59 -106 113 -105 197 0 49 7 80 27 124 15 32 26 61 24 63 -2 1 -25 -11 -51
-28 -47 -32 -89 -90 -102 -144 -4 -16 -14 -40 -22 -53 -12 -19 -17 -21 -28
-10 -32 32 -384 523 -384 535 0 7 -4 13 -9 13 -5 0 -38 38 -72 85 -35 47 -66
85 -69 85 -3 0 -4 -98 -2 -217 1 -120 1 -274 0 -343 l-3 -125 -22 42 c-13 23
-23 50 -23 60 0 34 -48 121 -90 163 -23 23 -44 40 -46 37 -3 -2 2 -31 11 -63
13 -51 13 -114 -1 -114 -3 0 -28 17 -57 39 -201 149 -524 277 -862 341 -60 12
-373 73 -695 136 -322 63 -722 142 -890 175 -168 33 -336 66 -375 74 -38 8
-290 57 -560 110 -269 53 -740 145 -1045 205 -305 60 -775 152 -1045 205 -269
53 -611 120 -760 150 -148 29 -271 52 -272 51 -2 -1 340 -220 760 -486 419
-266 819 -521 888 -566 l127 -82 6 -174 c3 -95 8 -811 11 -1590 l6 -1418 -43
-25 c-24 -15 -367 -215 -763 -445 -396 -231 -727 -424 -735 -429 -10 -8 8 -9
60 -5 41 3 914 54 1940 115 1026 60 2009 118 2185 129 176 11 335 20 353 20
l32 0 0 100 0 100 93 -50 c205 -109 436 -161 722 -162 341 -1 629 62 871 192
52 27 97 50 100 50 2 0 1 -8 -5 -17 -9 -19 -26 -123 -36 -233 -8 -87 10 -232
40 -327 34 -109 87 -195 175 -284 93 -95 200 -159 337 -202 87 -27 103 -35
103 -53 0 -35 49 -121 92 -159 41 -38 169 -105 200 -105 11 0 42 -37 83 -100
205 -311 534 -490 1001 -545 101 -12 256 -15 716 -15 l587 0 16 -57 c108 -392
306 -794 526 -1068 35 -44 176 -195 314 -335 327 -334 419 -453 495 -643 62
-157 74 -236 75 -492 0 -144 -5 -256 -13 -300 -7 -38 -15 -83 -18 -100 -4 -23
6 -13 46 48 182 276 405 756 543 1168 216 642 314 1164 305 1614 l-3 160 121
3 121 3 7 -77 c24 -289 -42 -991 -119 -1257 -61 -213 62 89 158 388 95 295
167 678 167 892 l0 53 883 0 c968 0 1039 3 1262 60 358 90 615 269 776 540 23
39 46 70 51 70 24 0 120 54 163 92 48 42 95 123 95 164 0 18 11 24 67 38 211
53 403 200 501 384 99 187 115 428 47 711 -13 53 -22 97 -20 99 1 1 177 -4
391 -13 369 -14 753 -29 1934 -75 283 -11 630 -24 770 -30 140 -5 602 -23
1025 -40 801 -31 1255 -49 2025 -79 250 -10 456 -18 458 -16 1 1 -26 31 -61
66 -35 35 -330 348 -657 694 -327 347 -628 665 -670 707 l-75 77 -369 -10
c-202 -5 -370 -8 -372 -6 -2 2 -5 336 -6 743 l-3 738 384 61 384 61 91 115
c50 63 359 452 686 864 579 729 646 815 637 815 -2 0 -137 -29 -298 -65 -162
-36 -910 -203 -1664 -371 -2498 -556 -3251 -725 -3424 -765 -252 -59 -1509
-339 -1521 -339 -15 0 -11 79 5 125 8 22 15 41 15 43 0 2 -14 -7 -31 -19 -34
-24 -94 -112 -104 -152 -6 -23 -16 -28 -78 -42 -40 -9 -81 -18 -91 -22 -17 -5
-18 -1 -13 28 4 19 14 59 22 89 26 96 15 224 -27 304 -15 29 -15 28 -20 -40
-7 -90 -32 -138 -108 -204 -37 -32 -86 -90 -125 -150 -35 -54 -71 -100 -78
-103 -8 -3 -35 -8 -60 -12 l-45 -7 -16 54 c-22 78 -83 149 -147 173 -14 5 -13
-2 6 -40 34 -65 50 -147 39 -187 -9 -32 -12 -34 -104 -54 -52 -12 -105 -24
-118 -28 l-23 -8 25 39 c32 49 56 116 56 160 0 44 -19 79 -65 123 -69 65 -92
151 -60 227 8 20 14 38 11 40 -2 2 -27 -27 -55 -65 -84 -114 -113 -200 -90
-269 17 -53 15 -142 -4 -180 -41 -78 -152 -128 -222 -99 -50 21 -77 70 -72
127 4 51 49 154 96 223 17 25 31 47 31 50 0 9 -146 -76 -174 -102 -15 -15 -46
-52 -67 -84 -52 -76 -82 -98 -134 -98 -53 0 -81 26 -71 66 4 15 54 74 111 133
123 125 134 139 170 211 39 77 45 163 16 224 -13 25 -37 57 -54 72 -35 30
-134 81 -141 73 -3 -3 5 -32 19 -64 27 -68 28 -74 26 -132 -1 -58 -25 -82
-190 -197 -194 -136 -237 -183 -316 -351 -53 -110 -70 -137 -96 -150 -69 -36
-139 12 -139 96 0 51 70 189 121 238 47 47 46 50 -8 19 -36 -22 -34 -18 33 62
39 47 86 105 104 130 30 41 34 37 15 -15 -13 -32 63 44 92 93 16 27 25 57 25
82 -1 29 11 61 43 117 95 168 214 485 254 678 31 149 49 275 40 275 -5 0 -23
-28 -40 -62 -75 -148 -279 -457 -409 -620 -95 -118 -280 -326 -292 -327 -4 -1
-8 20 -10 47 l-3 47 -19 -35 c-72 -132 -125 -198 -211 -263 -49 -36 -130 -89
-182 -117 -87 -49 -234 -113 -241 -105 -2 2 28 43 66 92 38 48 101 136 140
194 416 621 684 1321 791 2065 29 202 61 606 46 592 -4 -3 -26 -48 -49 -100
-89 -197 -236 -444 -372 -629 -366 -495 -813 -797 -1292 -873 -105 -17 -380
-23 -449 -10 l-36 7 7 166 c38 921 178 1612 382 1892 l34 46 -42 44 c-219 231
-433 828 -536 1499 -5 30 -11 48 -14 40z m1760 -3670 c6 0 13 -4 16 -8 3 -5
-2 -9 -11 -9 -16 0 -63 39 -63 52 0 5 10 -1 23 -13 13 -12 28 -22 35 -22z
m-38 -80 c0 -5 -2 -10 -4 -10 -3 0 -8 5 -11 10 -3 6 -1 10 4 10 6 0 11 -4 11
-10z m20 -50 c0 -5 -4 -10 -10 -10 -5 0 -10 5 -10 10 0 6 5 10 10 10 6 0 10
-4 10 -10z m8990 -175 c0 -3 -152 -195 -337 -427 -185 -233 -389 -489 -452
-570 -113 -142 -117 -146 -161 -153 -25 -3 -182 -29 -350 -56 -512 -83 -726
-117 -955 -154 -121 -19 -280 -45 -352 -57 l-133 -21 0 -225 0 -225 38 5 c365
49 903 110 908 105 5 -4 -20 -36 -54 -70 l-62 -63 0 -326 0 -326 -107 -6 c-60
-4 -209 -13 -333 -22 -124 -8 -278 -18 -343 -23 -90 -6 -122 -12 -135 -25 -15
-15 -17 -51 -20 -334 -1 -202 2 -322 8 -332 8 -12 18 -7 53 32 30 32 47 44 54
37 10 -10 140 -8 1348 21 226 6 428 10 451 10 40 0 43 -3 325 -302 156 -166
327 -347 380 -402 136 -144 193 -206 187 -206 -3 0 -160 163 -349 363 -498
526 -454 482 -457 458 -1 -12 -3 -30 -4 -41 -1 -12 -10 -20 -20 -20 -10 0 -18
-7 -18 -17 0 -13 -3 -14 -11 -6 -9 9 -7 16 5 29 9 9 15 19 12 22 -5 4 -235 3
-443 -2 -44 -1 -73 -16 -32 -16 21 -1 22 -2 7 -11 -10 -5 -18 -17 -18 -25 0
-8 -6 -17 -13 -20 -8 -3 -14 -11 -14 -19 0 -8 6 -15 14 -15 7 0 13 -4 13 -10
0 -5 -8 -7 -17 -4 -15 5 -16 4 -3 -5 11 -7 20 -5 35 9 29 27 41 25 15 -2 -33
-35 -136 -31 -113 5 4 7 0 8 -11 4 -10 -4 -22 -7 -27 -7 -5 0 -9 -4 -9 -10 0
-5 8 -10 18 -10 21 0 44 -42 36 -64 -3 -8 -14 -14 -25 -13 -14 1 -17 6 -13 20
4 14 3 17 -6 12 -7 -4 -16 -2 -21 6 -5 8 -3 16 4 21 20 12 0 20 -22 9 -22 -12
-34 -1 -25 23 3 9 3 23 0 32 -5 14 -9 14 -22 3 -13 -10 -17 -10 -24 0 -4 8
-13 10 -20 6 -8 -5 -4 -11 12 -20 15 -7 27 -8 36 -2 8 6 12 6 12 -1 0 -14 -49
-52 -67 -52 -8 0 -11 4 -8 10 3 6 -1 7 -10 4 -9 -4 -14 -12 -11 -19 3 -8 -2
-16 -10 -19 -10 -4 -13 -2 -8 7 5 9 4 9 -7 0 -19 -19 -26 -16 -24 10 1 13 8
22 17 21 8 -1 20 7 27 17 7 12 7 19 1 19 -5 0 -10 -4 -10 -10 0 -5 -6 -10 -12
-10 -23 -1 -49 -27 -51 -51 -1 -12 -9 -24 -19 -27 -10 -2 -16 -7 -14 -11 3 -4
1 -13 -4 -21 -7 -11 -13 -11 -32 -2 l-23 12 25 -5 c21 -5 22 -4 7 5 -13 8 -22
7 -40 -5 -13 -10 -16 -15 -7 -14 19 3 50 -10 50 -21 0 -4 -14 -7 -32 -6 -25 2
-34 -3 -47 -26 -17 -30 -30 -35 -49 -16 -18 18 -15 33 4 17 13 -11 14 -9 8 16
-5 20 -4 26 5 21 6 -4 11 -2 11 3 0 6 5 11 11 11 8 0 7 -5 -1 -15 -11 -13 -7
-36 4 -24 16 18 14 48 -5 68 -20 21 -22 21 -36 4 -8 -10 -11 -12 -7 -4 5 10 3
12 -5 7 -7 -5 -10 -14 -7 -22 3 -8 1 -14 -4 -14 -6 0 -10 5 -10 11 0 6 -6 9
-14 6 -8 -3 -17 -1 -20 6 -3 9 -5 8 -5 -1 -1 -7 13 -18 29 -23 17 -6 30 -17
30 -24 0 -18 -23 -32 -28 -17 -2 6 -10 8 -18 5 -10 -3 -12 0 -8 10 3 8 1 18
-5 22 -6 3 -9 0 -5 -8 3 -8 -2 -20 -11 -27 -13 -11 -13 -15 -3 -22 9 -5 5 -7
-12 -6 -28 3 -34 -20 -10 -39 8 -7 10 -13 4 -13 -16 0 -34 22 -34 42 0 10 5
18 10 18 7 0 7 6 1 19 -6 10 -7 21 -4 25 3 3 -1 6 -10 6 -9 0 -19 -5 -23 -12
-5 -7 -3 -8 6 -3 8 5 11 4 6 -3 -4 -6 -13 -9 -21 -5 -14 5 -20 -8 -16 -31 1
-5 -4 -6 -12 -3 -7 3 -18 -3 -24 -12 -8 -13 -22 -16 -57 -14 -35 2 -46 -1 -46
-12 0 -8 -5 -15 -11 -15 -7 0 -17 -8 -24 -17 -7 -9 -23 -18 -36 -20 l-24 -3
23 19 c12 11 28 21 35 24 8 3 7 10 -7 25 -22 26 -40 19 -33 -14 5 -27 -8 -34
-43 -23 -24 7 -24 7 -2 8 23 1 32 30 10 32 -7 1 -17 2 -23 4 -5 1 -16 3 -23 3
-7 1 -10 7 -6 14 4 7 3 8 -5 4 -14 -9 13 -59 46 -86 18 -14 20 -19 9 -23 -8
-3 -17 1 -20 9 -3 8 -12 14 -21 14 -18 0 -20 -16 -2 -23 9 -4 9 -6 -1 -6 -8
-1 -16 7 -19 18 -4 15 -13 18 -46 16 -29 -2 -51 4 -69 17 -16 11 -28 15 -28 9
0 -12 -29 -15 -54 -5 -8 3 -12 12 -10 19 3 7 1 16 -5 20 -7 3 -11 -2 -11 -14
0 -11 7 -24 16 -29 14 -8 14 -10 0 -21 -15 -13 -40 -6 -31 9 3 4 -4 10 -15 13
-25 6 -25 3 1 -27 22 -25 53 -25 63 1 5 13 9 13 23 2 13 -11 17 -11 20 -1 3 6
12 12 21 12 28 0 -29 -34 -62 -36 -16 -2 -33 -8 -37 -16 -6 -9 -9 -8 -15 5 -3
9 -13 17 -22 17 -12 0 -9 -7 11 -28 28 -30 34 -47 17 -57 -6 -3 -7 1 -4 10 5
11 0 18 -15 22 -11 3 -19 9 -16 12 2 4 -2 8 -9 8 -8 0 -12 -5 -10 -12 3 -6 -5
-11 -16 -11 -11 0 -20 4 -20 8 0 13 -38 28 -54 22 -9 -3 -13 -11 -9 -18 4 -7
2 -7 -7 1 -10 9 -10 15 -2 26 17 20 3 29 -15 11 -9 -8 -18 -12 -22 -8 -3 4 0
9 7 11 6 3 10 9 6 14 -3 5 0 9 5 9 6 0 11 4 11 10 0 5 -8 6 -17 3 -16 -6 -16
-5 -4 10 12 15 12 17 -3 11 -13 -5 -16 -14 -11 -31 4 -16 1 -25 -10 -29 -8 -3
-12 -10 -9 -15 3 -5 -2 -6 -10 -3 -9 3 -16 2 -16 -3 0 -15 37 -32 59 -26 12 3
21 1 21 -6 0 -6 -13 -9 -32 -7 -21 3 -37 -2 -47 -13 -9 -9 -12 -11 -7 -4 11
17 -6 17 -23 1 -10 -11 -11 -10 -6 4 6 15 3 16 -25 8 -17 -5 -38 -6 -45 -3 -9
3 -19 -5 -26 -20 -14 -31 -49 -44 -42 -16 3 10 14 21 24 24 10 4 19 14 19 23
0 11 -3 13 -8 6 -5 -8 -16 -6 -35 6 -19 12 -24 19 -15 23 7 2 10 8 6 12 -4 4
-14 2 -23 -5 -12 -10 -15 -10 -15 0 0 9 -3 10 -13 1 -8 -6 -17 -8 -21 -4 -4 4
-4 -1 0 -11 4 -10 16 -22 28 -26 18 -7 18 -9 3 -9 -17 -1 -17 -3 -3 -23 17
-24 22 -53 7 -44 -5 4 -12 0 -14 -6 -4 -10 -8 -10 -16 2 -5 8 -7 18 -5 22 3 5
-2 11 -10 14 -9 3 -13 11 -9 18 3 6 1 6 -8 -1 -7 -7 -24 -13 -37 -13 -25 0
-59 -15 -80 -37 -17 -16 -49 -17 -55 0 -4 9 -8 9 -16 -3 -5 -8 -7 -18 -5 -22
3 -4 -2 -8 -11 -8 -15 0 -25 6 -60 38 -32 28 -91 -1 -65 -33 9 -10 9 -15 1
-15 -6 0 -11 -4 -11 -10 0 -5 39 -11 88 -13 48 -2 25 -3 -51 -1 l-138 3 -50
-35 c-27 -20 -53 -43 -58 -52 -12 -21 -23 904 -24 2168 l-2 1055 75 16 c41 9
244 53 450 97 206 45 665 144 1020 221 1309 283 1780 385 1990 431 248 55 230
51 230 45z m-20658 -210 c244 -52 720 -153 1058 -225 338 -72 624 -133 636
-136 l20 -5 3 -1002 c1 -551 0 -999 -4 -996 -7 7 -14 144 -15 276 0 80 0 81
-24 79 -19 -3 -24 1 -21 16 3 14 0 18 -10 14 -12 -4 -15 7 -14 65 1 43 -3 75
-11 82 -9 9 -11 -155 -7 -746 2 -416 7 -761 11 -765 4 -3 28 16 53 43 27 28
48 44 51 37 3 -9 135 -12 578 -12 l575 0 -7 943 c-6 915 -6 945 14 1037 114
547 711 722 1464 429 327 -127 553 -321 684 -584 91 -185 96 -213 103 -620 3
-192 6 -559 5 -815 l0 -465 -26 -95 c-26 -98 -55 -176 -62 -169 -2 2 9 42 25
89 33 99 38 143 13 133 -13 -5 -15 -2 -9 15 7 23 -3 28 -23 12 -9 -7 -9 -7 -2
2 14 17 12 31 -4 25 -10 -4 -12 5 -8 41 7 68 -12 41 -27 -38 -56 -295 -271
-510 -614 -615 -165 -50 -239 -60 -447 -59 -181 0 -202 2 -295 28 -181 49
-331 133 -482 269 -58 51 -64 55 -96 47 -52 -11 -59 -18 -46 -43 12 -22 12
-22 -9 -3 -37 33 -47 82 -45 224 1 96 -2 132 -10 132 -14 0 -129 -18 -169 -26
l-28 -6 0 -314 c0 -293 -1 -314 -17 -313 -11 0 -13 3 -5 6 7 3 12 24 12 53 0
41 -4 51 -22 61 -13 7 -24 12 -25 11 -2 -1 -15 -2 -29 -2 -17 0 -28 6 -31 19
-4 16 -10 17 -39 11 -25 -6 -34 -4 -34 5 0 14 -70 24 -180 26 -103 1 -173 12
-178 27 -3 9 17 12 77 12 53 0 81 4 81 11 0 6 -9 9 -20 6 -21 -5 -64 25 -52
38 4 4 -5 5 -20 3 -30 -6 -35 1 -17 19 8 8 8 13 0 18 -6 3 -14 0 -17 -9 -4 -9
-16 -13 -35 -11 -16 2 -29 1 -29 -3 0 -4 9 -8 20 -9 26 -2 60 -33 36 -33 -8 0
-18 5 -21 10 -10 16 -43 12 -53 -6 -6 -12 -17 -15 -32 -11 -14 4 -29 0 -38
-10 -14 -13 -17 -13 -31 5 -18 22 -51 36 -51 22 0 -5 -13 -16 -28 -24 -27 -14
-28 -14 -40 16 -6 17 -9 35 -6 40 4 5 -3 4 -14 -3 -12 -7 -25 -10 -29 -6 -4 5
-1 12 7 17 13 8 13 12 -3 27 -16 16 -19 16 -28 3 -9 -13 -10 -13 -6 2 3 9 -1
22 -9 28 -10 9 -14 9 -14 1 0 -6 5 -11 12 -11 6 0 4 -8 -6 -19 -16 -17 -16
-19 5 -24 15 -4 20 -11 15 -23 -4 -11 -2 -15 8 -11 8 3 22 0 32 -7 17 -13 16
-14 -5 -21 -13 -4 -28 -2 -33 3 -13 13 -38 4 -38 -14 0 -18 -20 -17 -44 1 -21
16 -14 35 14 35 29 0 33 17 15 56 -19 41 -28 45 -15 7 9 -25 8 -26 -4 -10 -15
19 -36 23 -36 6 0 -6 -6 -9 -14 -6 -10 4 -12 0 -9 -14 4 -13 0 -19 -11 -19 -9
0 -16 -4 -16 -10 0 -5 5 -9 11 -7 6 1 14 -4 16 -11 4 -10 -1 -10 -21 -1 -27
13 -33 24 -16 34 6 3 10 11 10 17 0 6 -3 8 -6 5 -4 -3 -16 -1 -27 4 -16 9 -17
13 -6 20 10 6 7 8 -9 6 -12 0 -22 -7 -22 -15 0 -7 -4 -11 -9 -8 -5 4 -7 -4 -3
-16 3 -12 7 -17 10 -10 2 6 11 12 19 12 12 0 13 -3 3 -15 -6 -8 -9 -19 -5 -24
11 -19 -29 2 -47 24 -10 11 -17 15 -18 8 0 -21 -16 -15 -17 6 -1 15 3 18 15
13 16 -5 16 -5 0 11 -22 23 -28 21 -29 -5 -1 -21 -2 -20 -11 5 -5 15 -14 27
-20 27 -6 0 -8 -6 -5 -14 9 -23 -16 -25 -38 -3 -17 17 -17 19 -3 14 10 -3 20
-2 23 3 4 6 0 10 -8 10 -7 0 -19 11 -25 25 -6 14 -17 25 -24 24 -10 0 -10 -2
0 -6 16 -6 15 -25 -4 -49 -15 -18 -15 -18 -9 4 4 12 2 22 -3 22 -12 0 -24 -29
-17 -41 4 -5 -1 -6 -9 -3 -12 5 -13 9 -3 25 9 15 8 21 -8 33 -19 15 -19 15 5
16 14 0 31 4 39 9 12 8 12 14 -4 37 l-18 28 -19 -37 c-10 -20 -26 -37 -36 -38
-9 0 -12 -3 -5 -5 7 -3 11 -11 9 -17 -1 -7 -1 -9 1 -4 3 4 9 7 14 7 17 0 9
-20 -20 -51 l-29 -30 3 33 c2 27 -1 34 -16 35 -15 1 -16 -1 -7 -16 8 -14 8
-23 -4 -39 -14 -21 -15 -21 -31 16 -14 29 -14 33 -2 18 19 -25 40 -9 21 16
-11 14 -19 16 -47 8 -47 -14 -69 -12 -69 4 0 11 10 13 39 9 25 -4 41 -1 46 7
6 10 2 12 -14 7 -14 -3 -21 -1 -18 6 2 6 14 12 27 12 13 0 25 7 27 15 3 10 2
11 -4 3 -9 -12 -66 -6 -58 7 12 19 -42 -6 -63 -29 -21 -22 -22 -23 -13 -4 8
16 8 24 -1 29 -7 4 -10 4 -6 0 3 -4 -5 -21 -19 -37 -25 -28 -44 -38 -42 -21 4
22 -3 34 -16 29 -8 -4 -17 -2 -21 4 -3 6 -11 3 -19 -8 -7 -10 -11 -22 -8 -27
4 -5 1 -6 -6 -2 -6 4 -18 2 -26 -4 -26 -22 -16 0 11 25 24 22 25 25 8 25 -16
0 -17 2 -4 10 12 8 11 10 -7 10 -12 0 -25 5 -28 10 -10 16 -26 11 -23 -7 2
-11 -2 -17 -11 -15 -8 2 -30 5 -48 6 -18 2 -33 6 -33 10 0 3 0 11 0 17 0 8 5
7 15 -1 13 -11 18 -10 30 6 8 11 14 14 15 7 0 -21 20 -15 20 5 0 28 -70 33
-95 8 -25 -25 -29 -19 -9 12 17 26 17 27 -2 12 -10 -8 -26 -24 -36 -35 -9 -11
-20 -17 -24 -12 -4 4 -2 13 4 19 20 20 14 25 -23 22 -20 -1 -33 2 -29 7 3 5
-3 9 -13 10 -16 0 -16 1 2 8 11 5 23 7 27 4 11 -6 -4 31 -16 40 -7 6 -4 7 7 3
9 -3 17 -1 17 5 0 5 6 4 14 -3 9 -9 11 -19 5 -30 -14 -27 -11 -35 16 -35 14 0
25 5 25 12 0 8 3 22 7 32 3 10 3 15 -2 11 -4 -4 -18 1 -32 11 -13 11 -31 18
-41 16 -9 -2 -20 -4 -24 -4 -5 -1 -8 -11 -8 -23 0 -19 -2 -20 -10 -8 -9 13
-14 7 -11 -12 1 -10 -13 -10 -22 -1 -4 3 -1 13 5 20 9 12 9 14 -3 13 -25 -4
-40 0 -35 8 3 5 -1 20 -9 35 -7 14 -10 28 -7 32 4 3 -2 3 -12 -1 -14 -5 -17
-3 -14 7 3 8 11 13 17 12 6 -2 11 2 11 8 0 6 -14 8 -36 5 -24 -4 -33 -3 -28 5
11 18 -35 0 -58 -23 -11 -11 -23 -16 -26 -12 -4 3 -1 9 6 11 6 3 12 9 12 14 0
6 -5 7 -12 3 -8 -5 -9 -2 -5 9 3 10 2 17 -2 17 -11 0 -1 43 11 51 5 3 0 13
-10 23 -19 16 -19 10 -21 -311 -1 -180 -4 -344 -8 -363 -11 -66 -28 -83 -145
-149 -62 -35 -149 -85 -193 -111 -47 -28 -113 -57 -160 -70 -125 -34 -306 -90
-348 -107 -100 -43 -14 13 349 223 l396 229 -6 850 c-3 468 -9 1245 -13 1727
l-6 878 -336 214 c-185 117 -360 228 -388 246 -48 28 -61 40 -49 40 3 0 204
-43 448 -95z m9153 65 c10 -11 16 -20 13 -20 -3 0 -13 9 -23 20 -10 11 -16 20
-13 20 3 0 13 -9 23 -20z m7523 -1865 c2 -627 1 -1136 -4 -1132 -4 4 -10 54
-12 110 -2 56 -7 104 -13 105 -5 2 -16 11 -25 19 -11 12 -12 18 -3 30 10 11
14 11 20 1 4 -7 12 -9 16 -4 4 5 2 11 -5 13 -6 3 -10 9 -6 14 12 21 -13 7 -30
-16 -26 -34 -33 -20 -34 67 -1 39 -3 73 -7 76 -3 3 -5 -267 -5 -599 l0 -605
-67 3 c-38 2 -174 7 -303 12 l-235 9 -48 -30 c-26 -17 -51 -38 -56 -47 -5 -9
-12 -14 -15 -11 -2 3 -6 276 -7 608 -2 593 -3 602 -22 602 -42 0 -443 -31
-454 -35 -10 -3 -13 -84 -13 -356 0 -194 -2 -350 -5 -347 -3 2 -5 25 -6 51 -1
25 -6 44 -11 41 -4 -3 -8 0 -8 5 0 18 -24 7 -42 -19 -20 -28 -23 -23 -8 15 5
14 6 24 1 21 -5 -3 -9 31 -10 76 -2 106 -11 114 -13 12 0 -43 -2 -101 -4 -129
-1 -27 -3 -134 -3 -237 l-1 -187 -218 6 -219 6 -46 -31 c-25 -18 -47 -37 -50
-44 -2 -7 -7 -11 -9 -8 -3 3 -8 151 -12 330 -8 436 -20 2300 -14 2300 2 0 154
34 337 75 184 41 335 75 337 75 2 0 4 -221 4 -491 l0 -491 23 5 c12 3 120 18
239 33 l217 28 -6 512 -6 512 34 7 c19 4 151 34 294 67 143 32 269 61 280 63
11 3 63 16 115 29 52 14 104 24 114 23 19 -2 19 -30 24 -1142z m-5725 1104
c-12 -12 -76 -28 -113 -29 -20 0 -22 2 -10 10 8 5 29 10 45 10 17 0 37 5 45
10 21 14 47 13 33 -1z m-404 -70 c-22 -14 -33 -10 -19 6 7 8 17 12 22 9 6 -4
5 -10 -3 -15z m-64 -9 c3 -5 1 -10 -4 -10 -6 0 -11 5 -11 10 0 6 2 10 4 10 3
0 8 -4 11 -10z m645 -59 c0 -5 -7 -11 -15 -15 -15 -5 -20 5 -8 17 9 10 23 9
23 -2z m-50 -5 c0 -3 -4 -8 -10 -11 -5 -3 -10 -1 -10 4 0 6 5 11 10 11 6 0 10
-2 10 -4z m-1110 -199 c0 -2 -10 -12 -21 -23 -22 -19 -22 -19 -8 4 12 19 29
30 29 19z m-4628 -79 c642 -882 795 -1092 866 -1188 l85 -115 -6 506 c-4 278
-4 508 -2 511 3 3 117 -20 255 -51 l249 -56 3 -185 c2 -102 4 -664 6 -1250 l2
-1065 -22 27 c-81 98 -854 997 -858 997 -3 1 -4 -213 -2 -474 l3 -475 -58 2
-58 2 53 3 52 4 0 110 c0 73 -4 109 -11 109 -6 0 -8 7 -5 16 4 9 2 13 -5 8 -6
-4 -15 0 -20 7 -14 22 -11 27 14 22 19 -4 17 -1 -10 21 -22 18 -30 32 -26 44
5 14 3 15 -7 5 -10 -9 -10 -16 -2 -25 13 -17 10 -68 -4 -68 -7 0 -11 18 -10
47 1 40 5 49 26 60 14 7 19 13 11 13 -11 0 -11 3 -1 15 12 14 7 19 -14 16 -4
-1 -14 4 -22 10 -12 10 -14 -14 -14 -155 0 -151 -2 -166 -17 -166 -10 0 -98
-5 -196 -10 l-177 -9 -50 -38 c-33 -25 -50 -46 -51 -63 -9 -110 -18 427 -24
1550 -3 729 -8 1331 -11 1338 -8 29 15 8 58 -50z m9248 -327 l0 -318 -202 -33
c-112 -17 -213 -34 -225 -37 l-23 -5 0 -947 0 -946 -257 8 c-142 5 -259 10
-260 11 -2 1 -6 402 -9 892 -4 489 -8 891 -10 893 -2 2 -87 -9 -189 -24 -102
-15 -188 -25 -191 -22 -10 10 -17 534 -7 540 4 3 285 66 623 141 338 75 640
142 670 150 30 8 61 14 68 15 9 1 12 -69 12 -318z m-4059 156 c-10 -9 -11 -8
-5 6 3 10 9 15 12 12 3 -3 0 -11 -7 -18z m-26 -117 c3 -5 1 -10 -4 -10 -6 0
-11 5 -11 10 0 6 2 10 4 10 3 0 8 -4 11 -10z m-375 -15 c11 -13 10 -14 -4 -9
-9 3 -16 10 -16 15 0 13 6 11 20 -6z m85 -53 c-3 -3 -11 0 -18 7 -9 10 -8 11
6 5 10 -3 15 -9 12 -12z m260 8 c3 -5 1 -10 -4 -10 -6 0 -11 5 -11 10 0 6 2
10 4 10 3 0 8 -4 11 -10z m-28 -26 c-3 -3 -12 -4 -19 -1 -8 3 -5 6 6 6 11 1
17 -2 13 -5z m-177 -44 c0 -5 -5 -10 -11 -10 -5 0 -7 5 -4 10 3 6 8 10 11 10
2 0 4 -4 4 -10z m140 -10 c0 -5 -2 -10 -4 -10 -3 0 -8 5 -11 10 -3 6 -1 10 4
10 6 0 11 -4 11 -10z m-149 -32 c11 -21 11 -22 -4 -9 -10 7 -17 17 -17 22 0
15 9 10 21 -13z m2301 -70 c2 -51 3 -169 3 -263 l0 -169 -75 -12 c-41 -7 -163
-26 -270 -44 -107 -17 -205 -33 -217 -35 -22 -5 -23 -9 -23 -125 0 -65 3 -121
8 -123 4 -3 72 3 152 13 80 10 146 18 147 17 1 -1 3 -113 5 -249 l3 -247 -45
-5 c-25 -3 -93 -8 -152 -12 l-108 -6 0 -145 0 -144 290 7 290 7 0 -261 0 -262
-87 0 c-49 0 -167 5 -263 10 -96 4 -266 12 -377 16 l-201 7 -6 91 c-3 50 -8
479 -11 952 l-6 862 73 16 c40 9 249 57 463 105 215 49 393 89 397 90 4 1 8
-41 10 -91z m-2257 72 c-3 -5 -12 -10 -18 -10 -7 0 -6 4 3 10 19 12 23 12 15
0z m-55 -42 c0 -6 -7 -5 -15 2 -8 7 -15 17 -15 22 0 6 7 5 15 -2 8 -7 15 -17
15 -22z m8610 -170 c0 -100 -2 -179 -4 -177 -4 4 -10 316 -7 347 0 6 3 12 6
12 3 0 5 -82 5 -182z m-11225 89 l240 -53 3 -253 3 -254 -28 6 c-15 3 -122 20
-236 37 -233 37 -247 35 -273 -25 -11 -28 -14 -115 -14 -492 0 -272 4 -472 10
-494 17 -61 48 -81 136 -87 l77 -5 -7 312 -8 311 29 0 c15 0 91 -7 168 -15 77
-8 148 -15 158 -15 16 0 17 -33 17 -548 l0 -548 -222 -12 c-286 -16 -341 -15
-413 3 -166 43 -303 194 -357 392 -19 73 -22 116 -31 668 -11 642 -7 731 38
852 30 79 71 139 131 192 114 100 225 106 579 28z m11186 20 c-10 -9 -11 -8
-5 6 3 10 9 15 12 12 3 -3 0 -11 -7 -18z m-7211 -111 c0 -11 -38 -177 -115
-501 -13 -55 -94 -403 -181 -774 l-158 -674 -18 69 c-20 77 -152 620 -205 844
-31 129 -33 150 -24 193 17 75 13 146 -13 250 -27 107 -43 141 -96 213 -26 34
-43 73 -55 122 -10 40 -16 74 -14 76 8 9 271 66 279 61 4 -2 10 -21 13 -42 3
-21 26 -137 52 -258 25 -121 52 -247 59 -280 l12 -60 58 300 c32 165 64 324
70 354 l12 54 140 32 c160 37 184 40 184 21z m-2893 -127 c76 -17 141 -33 146
-36 4 -2 7 -312 7 -688 l0 -684 144 -3 145 -3 5 -211 5 -211 -82 -6 c-195 -15
-518 -30 -523 -25 -3 3 -8 432 -11 952 -6 857 -5 946 10 946 8 0 78 -14 154
-31z m-7072 -139 c3 -5 1 -10 -4 -10 -6 0 -11 5 -11 10 0 6 2 10 4 10 3 0 8
-4 11 -10z m7994 -30 c77 -14 160 -58 213 -111 47 -47 59 -74 37 -81 -9 -3 -9
-10 0 -26 11 -20 13 -21 35 -7 13 8 28 26 34 39 16 35 71 95 103 112 33 17 37
10 12 -19 -17 -18 -14 -18 27 3 43 22 44 22 27 2 -18 -19 -15 -19 42 4 47 19
80 25 142 25 90 0 123 -10 38 -12 -56 -1 -132 -16 -94 -18 19 -1 55 -41 37
-41 -5 0 -12 -38 -15 -85 -7 -97 -57 -260 -108 -350 -37 -66 -120 -160 -160
-180 -17 -9 -57 -15 -101 -15 -44 0 -84 -6 -100 -14 -37 -19 -35 -6 6 58 36
57 94 109 166 150 25 14 38 26 29 26 -31 0 -144 -40 -169 -60 -15 -12 -18 -18
-7 -14 20 7 23 -6 5 -24 -7 -7 -13 -17 -13 -22 0 -6 -3 -9 -6 -7 -5 2 -35 -22
-118 -96 -25 -23 -23 -14 13 38 l20 30 -21 -18 c-11 -10 -35 -46 -53 -79 -59
-110 -48 -245 27 -341 25 -31 25 -31 -9 3 -26 27 -42 35 -69 35 -36 0 -36 0
-21 -25 9 -14 -10 2 -41 35 -32 33 -92 96 -135 140 -43 44 -88 94 -100 110
-16 21 -20 23 -12 7 20 -40 6 -33 -25 13 -23 33 -35 43 -50 40 -11 -3 -14 -2
-7 1 18 9 15 25 -5 22 -22 -4 -83 113 -101 192 -27 116 -7 253 51 352 91 157
290 243 476 208z m798 -76 c-3 -3 -12 -4 -19 -1 -8 3 -5 6 6 6 11 1 17 -2 13
-5z m53 -19 c17 -9 30 -18 30 -21 0 -4 -59 23 -69 32 -10 9 13 3 39 -11z
m-164 -80 c20 -48 17 -57 -6 -15 -20 36 -24 50 -14 50 3 0 12 -16 20 -35z
m155 -118 c-10 -9 -11 -8 -5 6 3 10 9 15 12 12 3 -3 0 -11 -7 -18z m-146 -177
c-29 -55 -30 -60 -9 -35 13 17 47 64 76 105 60 87 76 107 55 65 -46 -91 -235
-321 -300 -366 -22 -15 -16 -6 21 31 103 103 171 228 173 317 l1 58 9 -55 c7
-51 5 -60 -26 -120z m-8618 138 c-3 -8 -6 -5 -6 6 -1 11 2 17 5 13 3 -3 4 -12
1 -19z m0 -50 c-3 -7 -5 -2 -5 12 0 14 2 19 5 13 2 -7 2 -19 0 -25z m16506
-25 c-7 -2 -19 -2 -25 0 -7 3 -2 5 12 5 14 0 19 -2 13 -5z m-135 -10 c-16 -2
-40 -2 -55 0 -16 2 -3 4 27 4 30 0 43 -2 28 -4z m-171 -215 c-1 -40 -3 -10 -3
67 0 77 1 110 3 73 2 -37 2 -100 0 -140z m-7436 143 c-12 -22 -39 -59 -60 -81
-22 -23 -32 -38 -23 -35 34 14 106 34 109 31 2 -2 -25 -13 -59 -25 -35 -12
-81 -31 -103 -43 -37 -19 -35 -16 25 40 36 33 79 82 95 110 35 59 45 61 16 3z
m-606 -111 c-3 -5 -12 -10 -18 -10 -7 0 -6 4 3 10 19 12 23 12 15 0z m606 -64
c-40 -41 -83 -78 -95 -84 -34 -16 -129 -34 -156 -30 -14 2 15 10 64 18 l89 14
81 77 c44 43 83 78 86 79 2 0 -29 -33 -69 -74z m-611 41 c0 -2 -10 -12 -22
-23 l-23 -19 19 23 c18 21 26 27 26 19z m6735 -77 c3 -5 1 -10 -4 -10 -6 0
-11 5 -11 10 0 6 2 10 4 10 3 0 8 -4 11 -10z m1312 -52 c-3 -8 -6 -5 -6 6 -1
11 2 17 5 13 3 -3 4 -12 1 -19z m-7574 -35 c-7 -2 -21 -2 -30 0 -10 3 -4 5 12
5 17 0 24 -2 18 -5z m-130 -58 c18 -9 23 -13 12 -9 -33 9 -120 22 -124 18 -2
-2 3 -12 11 -21 20 -23 48 -79 48 -95 0 -7 -9 5 -19 27 -10 22 -30 53 -45 68
-14 15 -26 31 -26 34 0 10 110 -7 143 -22z m-225 -98 c26 -26 32 -38 32 -75 0
-35 -6 -49 -29 -73 -50 -50 -129 -34 -118 23 4 21 4 21 6 -3 2 -46 53 -53 100
-13 33 28 42 75 21 114 -13 24 -52 48 -44 27 2 -7 -6 -19 -20 -26 -14 -8 -30
-27 -37 -44 -7 -17 -15 -25 -17 -18 -2 6 2 18 8 27 7 8 11 17 8 19 -3 3 -24
-15 -47 -41 -27 -28 -40 -38 -36 -25 7 22 5 21 -64 -16 -2 -1 -7 -17 -12 -35
-7 -25 -7 -19 -4 26 7 78 33 118 98 151 64 32 108 27 155 -18z m179 -69 c-3
-8 -6 -5 -6 6 -1 11 2 17 5 13 3 -3 4 -12 1 -19z m6512 -5 c0 -25 -1 -25 -8
-8 -5 11 -7 23 -4 28 8 14 13 7 12 -20z m2804 -40 c-7 -3 -13 -11 -13 -19 0
-8 -4 -14 -10 -14 -5 0 -10 2 -10 4 0 2 -3 11 -6 19 -4 11 2 17 18 19 26 4 40
-2 21 -9z m191 4 c17 -12 15 -14 -17 -13 -19 1 -33 4 -30 9 2 4 -1 7 -6 7 -6
0 -11 -9 -11 -20 0 -11 -5 -20 -11 -20 -6 0 -8 9 -4 20 5 15 3 18 -8 14 -8 -3
-18 -1 -22 5 -9 16 87 14 109 -2z m-281 -20 c-46 -38 -60 -40 -59 -6 1 27 3
29 44 29 l44 0 -29 -23z m461 -23 c3 -9 -1 -14 -14 -14 -23 0 -26 -10 -8 -28
6 -6 8 -15 4 -19 -4 -4 -10 -3 -14 2 -4 6 -15 15 -26 20 -27 15 -25 30 6 33
19 2 25 8 21 18 -3 10 0 12 10 8 9 -3 18 -12 21 -20z m-10010 -81 c15 -13 23
-23 17 -23 -21 0 -61 62 -60 93 1 30 2 30 9 -7 4 -24 18 -49 34 -63z m270 41
c-16 -21 -41 -43 -54 -52 -22 -13 -22 -12 2 7 15 12 37 38 49 57 12 19 24 33
27 29 3 -3 -8 -21 -24 -41z m9356 26 c0 -5 -4 -10 -10 -10 -5 0 -10 5 -10 10
0 6 5 10 10 10 6 0 10 -4 10 -10z m443 -7 c-3 -7 1 -13 8 -13 7 0 10 -3 6 -6
-3 -4 -18 3 -33 15 l-27 21 26 -2 c16 -1 23 -7 20 -15z m-373 -8 c0 -8 -4 -15
-10 -15 -5 0 -10 7 -10 15 0 8 5 15 10 15 6 0 10 -7 10 -15z m107 9 c-3 -3
-12 -4 -19 -1 -8 3 -5 6 6 6 11 1 17 -2 13 -5z m-283 -29 c-4 -8 -1 -15 5 -15
6 0 11 8 11 18 0 10 3 13 8 6 4 -6 15 -12 25 -12 41 -4 47 -6 47 -13 0 -14
-41 -21 -55 -9 -22 18 -48 -5 -35 -30 13 -24 13 -40 0 -20 -8 12 -10 12 -16
-3 -3 -9 -10 -17 -16 -17 -5 0 -6 5 -2 11 3 6 0 16 -7 21 -11 8 -10 9 3 4 10
-3 20 -1 23 4 4 6 1 10 -5 10 -6 0 -8 5 -5 10 3 6 1 10 -6 10 -7 0 -5 8 6 20
22 24 26 25 19 5z m546 -25 c0 -4 -6 -10 -14 -13 -10 -4 -12 0 -9 14 5 18 23
18 23 -1z m-807 -28 c-2 -7 2 -12 8 -12 8 0 8 -4 -1 -15 -6 -8 -8 -20 -4 -27
6 -10 4 -10 -9 0 -9 8 -21 11 -27 7 -5 -3 -10 -2 -10 4 0 5 4 12 9 15 5 3 7
15 4 27 -5 17 -2 20 13 17 10 -2 18 -10 17 -16z m-9166 -18 c-3 -3 -12 -4 -19
-1 -8 3 -5 6 6 6 11 1 17 -2 13 -5z m56 -1 c-7 -2 -19 -2 -25 0 -7 3 -2 5 12
5 14 0 19 -2 13 -5z m9074 1 c-3 -3 -12 -4 -19 -1 -8 3 -5 6 6 6 11 1 17 -2
13 -5z m-18511 -26 c4 -13 11 -26 17 -29 5 -4 8 -12 5 -19 -3 -9 -8 -9 -20 3
-8 9 -17 15 -19 14 -3 -1 -1 2 3 8 16 19 7 27 -12 10 -11 -10 -20 -13 -20 -7
0 7 5 12 10 12 6 0 10 7 10 15 0 23 18 18 26 -7z m14791 -60 c-2 -13 -4 -5 -4
17 -1 22 1 32 4 23 2 -10 2 -28 0 -40z m3622 35 c8 -1 23 3 33 8 14 8 18 6 18
-8 0 -15 2 -16 10 -3 5 8 10 11 10 5 0 -5 -4 -17 -10 -25 -8 -13 -10 -12 -15
1 -4 10 -18 15 -40 15 -37 -1 -47 -11 -17 -19 12 -3 10 -5 -7 -6 -18 -1 -22
-5 -16 -18 4 -13 3 -15 -5 -7 -14 14 -1 76 14 67 6 -4 17 -8 25 -10z m111 -33
c0 -5 -5 -10 -11 -10 -5 0 -7 5 -4 10 3 6 8 10 11 10 2 0 4 -4 4 -10z m-18520
-21 c0 -14 -17 -10 -23 5 -4 10 -1 13 9 9 7 -3 14 -9 14 -14z m83 -54 c8 -18
7 -17 -12 3 -13 12 -19 27 -15 34 6 9 9 8 12 -2 3 -8 9 -24 15 -35z m18272 24
c-4 -5 -1 -9 4 -9 6 0 11 -4 11 -9 0 -5 -8 -7 -19 -4 -13 3 -17 11 -14 24 3
10 9 16 14 13 5 -3 7 -10 4 -15z m-13872 -35 c-7 -18 -10 -18 -22 5 -9 16 -8
18 8 14 12 -3 17 -11 14 -19z m10304 4 c-3 -8 -6 -5 -6 6 -1 11 2 17 5 13 3
-3 4 -12 1 -19z m3233 18 c0 -2 -7 -9 -15 -16 -13 -11 -14 -10 -9 4 5 14 24
23 24 12z m123 -15 c8 -8 2 -11 -20 -11 -17 0 -36 7 -44 16 -11 14 -9 15 20
11 19 -3 38 -10 44 -16z m45 -47 c-4 -3 -12 5 -18 18 -12 22 -12 22 6 6 10
-10 15 -20 12 -24z m89 14 c-3 -8 -6 -5 -6 6 -1 11 2 17 5 13 3 -3 4 -12 1
-19z m-357 2 c-8 -5 -22 -10 -30 -10 -13 0 -13 1 0 10 8 5 22 10 30 10 13 0
13 -1 0 -10z m55 0 c3 -6 -1 -7 -9 -4 -18 7 -21 14 -7 14 6 0 13 -4 16 -10z
m-13462 -15 c-3 -9 -8 -14 -10 -11 -3 3 -2 9 2 15 9 16 15 13 8 -4z m13584 9
c-3 -3 -12 -4 -19 -1 -8 3 -5 6 6 6 11 1 17 -2 13 -5z m63 -4 c0 -5 -7 -7 -15
-4 -8 4 -15 8 -15 10 0 2 7 4 15 4 8 0 15 -4 15 -10z m-17953 -36 c-7 -7 -37
7 -37 17 0 6 9 5 21 -1 11 -7 19 -14 16 -16z m17698 5 c9 -14 -4 -27 -13 -13
-4 6 -14 14 -22 17 -10 4 -8 6 7 6 12 1 25 -4 28 -10z m-17021 -24 c-4 -8 -8
-15 -10 -15 -2 0 -4 7 -4 15 0 8 4 15 10 15 5 0 7 -7 4 -15z m-494 -29 c0 -4
-7 -5 -16 -2 -9 3 -20 6 -25 6 -5 0 -9 6 -9 14 0 11 5 12 25 3 14 -7 25 -16
25 -21z m17120 14 c0 -11 -4 -20 -9 -20 -5 0 -7 9 -4 20 3 11 7 20 9 20 2 0 4
-9 4 -20z m75 10 c3 -6 -1 -7 -9 -4 -18 7 -21 14 -7 14 6 0 13 -4 16 -10z
m-17361 -9 c4 -5 -3 -7 -14 -4 -23 6 -26 13 -6 13 8 0 17 -4 20 -9z m216 -2
c0 -5 -4 -7 -10 -4 -5 3 -10 1 -10 -6 0 -7 -3 -10 -6 -6 -8 7 4 27 17 27 5 0
9 -5 9 -11z m240 7 c0 -2 -7 -7 -16 -10 -8 -3 -12 -2 -9 4 6 10 25 14 25 6z
m16650 -18 c0 -6 -6 -5 -15 2 -8 7 -15 14 -15 16 0 2 7 1 15 -2 8 -4 15 -11
15 -16z m357 7 c0 -8 -7 -15 -15 -15 -12 0 -12 3 -2 15 7 8 13 15 15 15 1 0 2
-7 2 -15z m303 -5 c0 -5 -2 -10 -4 -10 -3 0 -8 5 -11 10 -3 6 -1 10 4 10 6 0
11 -4 11 -10z m-17420 -50 c0 -5 -4 -10 -10 -10 -5 0 -10 5 -10 10 0 6 5 10
10 10 6 0 10 -4 10 -10z m136 -17 c-10 -10 -19 5 -10 18 6 11 8 11 12 0 2 -7
1 -15 -2 -18z m3770 -1 c-17 -16 -18 -16 -5 5 7 12 15 20 18 17 3 -2 -3 -12
-13 -22z m12379 -13 c10 -15 -1 -23 -20 -15 -9 3 -13 10 -10 16 8 13 22 13 30
-1z m-16315 -6 c0 -5 -5 -15 -10 -23 -8 -12 -10 -11 -10 8 0 12 5 22 10 22 6
0 10 -3 10 -7z m195 -3 c3 -5 -3 -10 -15 -10 -12 0 -18 5 -15 10 3 6 10 10 15
10 5 0 12 -4 15 -10z m16330 0 c3 -5 -1 -10 -9 -10 -9 0 -16 5 -16 10 0 6 4
10 9 10 6 0 13 -4 16 -10z m-12619 -28 c-17 -16 -18 -16 -5 5 7 12 15 20 18
17 3 -2 -3 -12 -13 -22z m-3197 -3 c3 -11 1 -12 -11 -2 -8 7 -19 9 -23 5 -5
-4 -5 -1 -1 6 9 16 28 11 35 -9z m-359 2 c0 -5 -7 -12 -16 -15 -14 -5 -15 -4
-4 9 14 17 20 19 20 6z m115 -21 c-6 -9 -9 -9 -16 1 -10 17 0 34 13 21 6 -6 7
-16 3 -22z m-105 -10 c-6 -11 -16 -18 -21 -14 -6 3 -3 12 8 20 24 18 26 17 13
-6z m3530 6 c0 -2 -8 -10 -17 -17 -16 -13 -17 -12 -4 4 13 16 21 21 21 13z
m-3390 -16 c0 -5 -2 -10 -4 -10 -3 0 -8 5 -11 10 -3 6 -1 10 4 10 6 0 11 -4
11 -10z m15868 -7 c-26 -2 -71 -2 -100 0 -29 2 -8 3 47 3 55 0 79 -1 53 -3z
m105 -10 c-7 -2 -19 -2 -25 0 -7 3 -2 5 12 5 14 0 19 -2 13 -5z m94 1 c-3 -3
-12 -4 -19 -1 -8 3 -5 6 6 6 11 1 17 -2 13 -5z m141 -1 c-10 -2 -28 -2 -40 0
-13 2 -5 4 17 4 22 1 32 -1 23 -4z m-12848 -6 c0 -2 -15 -16 -32 -33 l-33 -29
29 33 c28 30 36 37 36 29z m13047 -4 c-20 -2 -52 -2 -70 0 -17 2 0 4 38 4 39
0 53 -2 32 -4z m-15944 -10 c-7 -2 -19 -2 -25 0 -7 3 -2 5 12 5 14 0 19 -2 13
-5z m16144 0 c-20 -2 -52 -2 -70 0 -17 2 0 4 38 4 39 0 53 -2 32 -4z m-12440
-160 c-20 -2 -52 -2 -70 0 -17 2 0 4 38 4 39 0 53 -2 32 -4z m-144 -10 c-13
-2 -35 -2 -50 0 -16 2 -5 4 22 4 28 0 40 -2 28 -4z m-2930 -70 c-13 -2 -35 -2
-50 0 -16 2 -5 4 22 4 28 0 40 -2 28 -4z m-225 -10 c-15 -2 -42 -2 -60 0 -18
2 -6 4 27 4 33 0 48 -2 33 -4z m-150 -10 c-16 -2 -40 -2 -55 0 -16 2 -3 4 27
4 30 0 43 -2 28 -4z m-165 -10 c-7 -2 -19 -2 -25 0 -7 3 -2 5 12 5 14 0 19 -2
13 -5z m3170 -245 c167 -256 431 -461 611 -475 62 -5 72 -3 148 32 45 21 102
40 130 43 57 5 54 15 -27 66 -92 58 -196 92 -344 111 -47 6 -52 9 -38 20 9 7
51 18 92 25 153 26 322 -9 460 -95 75 -47 163 -131 187 -179 l15 -29 7 29 c30
119 127 284 219 371 68 64 179 137 260 170 205 83 534 95 872 32 61 -12 115
-25 122 -31 12 -9 10 -272 -3 -376 -9 -71 -53 -68 -54 4 0 58 -29 130 -71 178
-83 94 -248 148 -449 148 -267 1 -431 -91 -530 -296 -61 -126 -74 -194 -74
-386 0 -150 3 -173 27 -253 65 -212 179 -353 364 -454 115 -62 185 -76 351
-70 88 3 156 10 189 21 101 32 175 112 213 228 19 58 33 69 49 39 18 -32 -25
-293 -55 -338 -37 -57 -180 -86 -429 -86 -263 0 -463 45 -625 143 -198 119
-299 251 -377 490 -18 57 -44 123 -58 145 -75 128 -204 183 -326 140 -78 -28
-119 -83 -121 -164 -2 -56 20 -97 66 -129 81 -55 188 -28 194 50 3 32 -3 44
-40 84 l-43 47 35 -7 c85 -16 160 -109 145 -178 -10 -44 -77 -112 -138 -139
-107 -47 -211 -26 -313 64 -90 79 -118 201 -74 327 10 30 17 56 16 58 -11 10
-122 -46 -173 -87 -60 -49 -62 -49 -157 -58 -113 -10 -114 -11 34 77 101 60
103 62 60 55 -25 -4 -87 -17 -139 -30 l-94 -24 -61 19 c-76 24 -266 103 -266
111 0 6 203 18 335 20 l80 1 -72 18 c-162 42 -302 128 -378 231 -42 57 -91
166 -80 177 3 3 18 -6 33 -20 142 -131 605 -379 706 -378 12 0 -8 11 -44 24
-112 39 -200 94 -320 197 -72 61 -90 92 -131 214 -20 59 -36 236 -22 257 3 6
16 -15 29 -45 12 -31 47 -94 77 -139z m9149 131 c3 -55 -16 -190 -31 -224 -6
-11 -20 -44 -32 -73 -46 -112 -284 -288 -451 -333 -22 -5 -38 -13 -35 -16 17
-17 263 83 411 169 108 61 254 157 314 205 52 43 55 28 12 -63 -35 -72 -119
-168 -186 -213 -61 -40 -183 -90 -258 -105 -60 -13 -58 -13 124 -21 102 -4
195 -8 208 -9 12 -1 22 -4 22 -7 0 -6 -179 -83 -259 -110 l-56 -20 -105 25
c-197 46 -198 46 -80 -24 58 -34 112 -69 120 -77 13 -13 10 -14 -25 -9 -22 3
-67 8 -99 11 -51 5 -67 13 -114 51 -30 25 -67 51 -81 58 -23 12 -101 37 -101
33 0 -1 10 -27 22 -57 14 -37 21 -77 21 -122 0 -121 -61 -207 -193 -273 -46
-23 -63 -27 -115 -23 -76 7 -151 44 -198 99 -40 47 -47 69 -34 119 11 44 51
87 102 111 66 31 76 24 34 -21 -64 -67 -62 -124 5 -156 52 -25 117 -12 165 34
124 118 -5 314 -187 287 -110 -16 -177 -73 -235 -197 -40 -85 -57 -85 -72 -3
-6 33 -14 66 -19 74 -20 32 -80 44 -253 49 l-173 5 1 -299 c1 -341 3 -358 65
-389 34 -17 59 -20 194 -20 141 0 159 2 201 23 51 25 84 74 95 141 7 44 29 64
45 40 9 -14 6 -65 -13 -198 -12 -89 -25 -120 -52 -127 -12 -2 -238 -3 -504 -1
-358 3 -486 7 -495 16 -17 17 8 31 55 31 53 0 85 18 98 54 22 61 32 357 28
886 -3 365 -8 544 -16 562 -15 36 -43 50 -127 63 -53 8 -71 15 -73 28 -3 16
28 17 475 17 285 0 496 5 522 11 24 5 46 8 48 5 9 -9 -21 -308 -32 -323 -18
-25 -32 -8 -38 46 -13 108 -53 126 -310 136 l-167 7 2 -298 3 -299 200 4 c110
2 209 7 221 12 13 4 33 31 48 65 62 136 207 250 396 311 70 22 233 25 309 5
76 -20 88 -36 29 -40 -132 -9 -293 -64 -377 -128 -27 -21 -50 -41 -51 -44 0
-3 22 -5 49 -6 34 -1 73 -12 130 -39 91 -43 121 -47 200 -27 157 39 371 207
524 410 50 67 127 208 127 232 0 6 4 10 9 10 5 0 11 -23 13 -51z m-3937 7 c22
-34 54 -109 337 -806 224 -551 302 -730 318 -730 3 0 7 61 8 137 4 143 12 183
37 183 15 0 19 -13 29 -87 15 -109 74 -201 157 -243 58 -30 150 -43 221 -30
79 15 125 39 170 88 48 53 61 99 56 187 -8 125 -60 195 -270 361 -265 211
-358 350 -358 538 0 223 141 374 386 417 125 22 395 -5 428 -42 17 -20 6 -323
-12 -341 -11 -11 -16 -10 -28 6 -8 11 -14 33 -14 48 0 76 -80 175 -166 208
-149 55 -330 -7 -363 -125 -40 -144 20 -243 249 -415 252 -189 354 -322 381
-502 23 -147 -17 -274 -121 -382 -111 -116 -231 -160 -435 -159 -66 0 -140 6
-165 12 -25 6 -137 11 -250 11 -214 2 -295 8 -295 25 0 6 10 14 23 20 12 5 22
19 22 30 0 12 -40 124 -89 250 l-90 230 -254 3 -254 2 -71 -182 c-81 -209 -82
-212 -84 -263 -2 -48 20 -65 83 -65 46 0 77 -18 65 -38 -6 -11 -971 -10 -981
0 -4 4 -5 14 -2 23 5 10 20 15 51 15 52 0 92 16 101 39 19 49 25 143 26 429
l1 317 -427 3 -427 2 4 -347 c4 -288 7 -354 20 -384 19 -44 55 -59 138 -59 57
0 89 -17 76 -38 -7 -12 -676 -10 -694 2 -25 16 8 36 60 36 63 0 93 27 105 96
10 62 11 1369 0 1407 -9 34 -47 52 -128 62 -65 8 -89 19 -73 35 7 7 120 9 345
8 299 -3 334 -5 337 -19 2 -13 -9 -18 -54 -24 -130 -16 -129 -12 -129 -370 l0
-280 414 -3 c235 -1 419 2 424 7 11 11 9 543 -2 573 -5 13 -17 31 -28 41 -20
17 -126 42 -142 33 -4 -3 -17 1 -27 9 -43 32 -5 35 337 33 299 -3 334 -5 337
-19 2 -13 -9 -18 -54 -24 -76 -9 -101 -22 -115 -59 -16 -40 -25 -1119 -11
-1310 10 -136 26 -178 68 -184 31 -5 85 39 115 93 15 28 159 376 319 775 161
399 299 733 308 743 21 23 39 21 57 -7z m-1300 -2046 c10 -16 -42 -128 -99
-214 -64 -96 -163 -193 -230 -225 -101 -49 -219 -36 -331 37 -105 68 -245 226
-334 375 l-23 37 506 0 c308 0 507 -4 511 -10z"/>
<path d="M20744 6090 c17 -6 36 -5 45 0 11 7 3 9 -29 9 -42 -1 -43 -1 -16 -9z"/>
<path d="M20843 6093 c9 -2 23 -2 30 0 6 3 -1 5 -18 5 -16 0 -22 -2 -12 -5z"/>
<path d="M20908 6089 c15 -6 30 -5 40 1 13 7 8 9 -23 9 -35 0 -37 -1 -17 -10z"/>
<path d="M20627 6059 c7 -7 15 -10 18 -7 3 3 -2 9 -12 12 -14 6 -15 5 -6 -5z"/>
<path d="M20810 6061 c0 -5 5 -13 10 -16 6 -3 10 -2 10 4 0 5 -4 13 -10 16 -5
3 -10 2 -10 -4z"/>
<path d="M20875 6060 c3 -5 8 -10 11 -10 2 0 4 5 4 10 0 6 -5 10 -11 10 -5 0
-7 -4 -4 -10z"/>
<path d="M20959 6041 c-24 -27 -36 -67 -17 -55 4 3 8 12 8 20 0 8 4 14 9 14 5
0 11 10 15 23 5 18 8 20 16 7 8 -13 10 -12 10 3 0 25 -12 21 -41 -12z"/>
<path d="M20860 6041 c0 -5 6 -12 13 -15 10 -5 10 -7 0 -12 -7 -3 -13 -10 -13
-16 0 -7 5 -7 13 1 8 6 17 8 20 4 8 -7 47 26 47 40 0 5 -7 4 -15 -3 -12 -10
-21 -10 -40 -2 -14 7 -25 8 -25 3z"/>
<path d="M20585 6020 c3 -5 11 -10 16 -10 6 0 7 5 4 10 -3 6 -11 10 -16 10 -6
0 -7 -4 -4 -10z"/>
<path d="M20665 6021 c-3 -6 4 -15 15 -21 23 -12 26 -5 6 16 -9 8 -17 10 -21
5z"/>
<path d="M20606 5975 c-6 -17 9 -29 24 -20 14 9 12 22 -4 28 -8 3 -17 -1 -20
-8z"/>
<path d="M20885 5950 c-3 -5 1 -10 9 -10 9 0 16 5 16 10 0 6 -4 10 -9 10 -6 0
-13 -4 -16 -10z"/>
<path d="M20428 5943 c7 -3 16 -2 19 1 4 3 -2 6 -13 5 -11 0 -14 -3 -6 -6z"/>
<path d="M20285 5920 c3 -5 11 -10 16 -10 6 0 7 5 4 10 -3 6 -11 10 -16 10 -6
0 -7 -4 -4 -10z"/>
<path d="M20110 5899 c0 -5 5 -7 10 -4 6 3 10 8 10 11 0 2 -4 4 -10 4 -5 0
-10 -5 -10 -11z"/>
<path d="M20375 5900 c-3 -6 1 -7 9 -4 18 7 21 14 7 14 -6 0 -13 -4 -16 -10z"/>
<path d="M19940 5889 c0 -5 5 -7 10 -4 6 3 10 8 10 11 0 2 -4 4 -10 4 -5 0
-10 -5 -10 -11z"/>
<path d="M20510 5890 c0 -5 5 -10 10 -10 6 0 10 5 10 10 0 6 -4 10 -10 10 -5
0 -10 -4 -10 -10z"/>
<path d="M19986 5863 c-6 -14 -5 -15 5 -6 7 7 10 15 7 18 -3 3 -9 -2 -12 -12z"/>
<path d="M20335 5870 c-3 -5 -2 -10 4 -10 5 0 13 5 16 10 3 6 2 10 -4 10 -5 0
-13 -4 -16 -10z"/>
<path d="M20175 5860 c-3 -6 1 -7 9 -4 18 7 21 14 7 14 -6 0 -13 -4 -16 -10z"/>
<path d="M20212 5858 c-14 -14 -16 -28 -3 -28 9 0 24 30 18 36 -2 2 -9 -2 -15
-8z"/>
<path d="M19925 5830 c-16 -17 -16 -20 -3 -15 9 4 19 13 22 21 7 19 2 18 -19
-6z"/>
<path d="M20020 5839 c0 -9 33 -29 47 -29 4 0 0 5 -10 11 -9 6 -15 14 -13 18
3 4 -1 8 -9 8 -8 0 -15 -4 -15 -8z"/>
<path d="M20100 5830 c-9 -6 -10 -10 -3 -10 6 0 15 5 18 10 8 12 4 12 -15 0z"/>
<path d="M20120 5809 c0 -5 5 -7 10 -4 6 3 10 8 10 11 0 2 -4 4 -10 4 -5 0
-10 -5 -10 -11z"/>
<path d="M19610 5800 c0 -5 5 -10 11 -10 5 0 7 5 4 10 -3 6 -8 10 -11 10 -2 0
-4 -4 -4 -10z"/>
<path d="M20140 5796 c0 -2 7 -9 15 -16 13 -11 14 -10 9 4 -5 14 -24 23 -24
12z"/>
<path d="M19051 5763 c7 -12 15 -20 18 -17 3 2 -3 12 -13 22 -17 16 -18 16 -5
-5z"/>
<path d="M19405 5767 c-4 -10 -5 -21 -1 -24 10 -10 18 4 13 24 -4 17 -4 17
-12 0z"/>
<path d="M19560 5750 c6 -11 12 -20 13 -20 2 0 3 9 3 20 0 11 -6 20 -13 20
-11 0 -11 -5 -3 -20z"/>
<path d="M19623 5740 c-13 -5 -23 -12 -23 -15 0 -4 10 -3 23 0 19 6 18 4 -6
-12 -15 -11 -24 -22 -21 -26 3 -3 15 3 27 13 11 11 23 18 26 15 4 -2 7 5 7 16
0 21 -2 22 -33 9z"/>
<path d="M19920 5745 c0 -8 29 -12 39 -5 9 5 4 8 -13 8 -14 0 -26 -2 -26 -3z"/>
<path d="M19471 5699 c12 -23 15 -23 22 -5 3 8 -2 16 -14 19 -16 4 -17 2 -8
-14z"/>
<path d="M19420 5700 c-8 -5 -11 -10 -6 -10 4 0 -2 -9 -15 -21 -13 -11 -19
-18 -12 -15 6 4 13 3 16 -1 2 -5 2 -2 1 5 -5 17 11 15 31 -4 18 -19 20 -18 30
15 6 19 4 23 -9 18 -8 -3 -18 -2 -21 3 -3 4 1 11 7 13 7 3 9 6 3 6 -5 0 -17
-4 -25 -9z"/>
<path d="M19300 5690 c0 -5 5 -10 11 -10 5 0 7 -5 4 -10 -3 -6 1 -13 10 -16
25 -10 28 3 6 25 -23 23 -31 26 -31 11z"/>
<path d="M19050 5676 c14 -18 13 -19 -15 -12 -16 4 -28 6 -25 4 3 -2 16 -12
30 -23 14 -11 22 -16 18 -11 -4 5 -3 15 2 21 7 9 5 17 -7 26 -17 13 -17 13 -3
-5z"/>
<path d="M19135 5679 c-4 -6 -12 -8 -19 -6 -7 3 -13 -4 -13 -14 -1 -10 1 -19
5 -19 12 0 55 50 44 50 -6 0 -14 -5 -17 -11z"/>
<path d="M19620 5679 c0 -5 5 -7 10 -4 6 3 10 8 10 11 0 2 -4 4 -10 4 -5 0
-10 -5 -10 -11z"/>
<path d="M19075 5650 c-8 -13 3 -30 18 -29 9 0 9 2 0 5 -7 3 -9 12 -6 20 6 16
-3 19 -12 4z"/>
<path d="M19003 5623 c0 -16 1 -20 4 -10 2 9 9 17 14 17 6 0 7 5 4 10 -11 18
-21 10 -22 -17z"/>
<path d="M18854 5619 c-3 -5 6 -9 20 -9 31 0 34 6 6 13 -11 3 -23 1 -26 -4z"/>
<path d="M18930 5619 c0 -5 5 -7 10 -4 6 3 10 8 10 11 0 2 -4 4 -10 4 -5 0
-10 -5 -10 -11z"/>
<path d="M18760 5575 c-7 -9 -10 -18 -6 -22 3 -3 6 -1 6 5 0 7 6 12 14 12 8 0
18 5 21 10 10 16 -21 11 -35 -5z"/>
<path d="M18747 5519 c-4 -15 0 -19 19 -19 29 0 29 1 5 22 -18 15 -19 15 -24
-3z"/>
<path d="M5721 7643 c-43 -23 -70 -58 -81 -109 -5 -22 -7 -347 -3 -759 6 -802
4 -775 74 -827 48 -36 92 -48 171 -48 102 0 167 33 206 105 19 34 21 210 12
1020 -5 423 -6 442 -26 486 -38 82 -132 136 -254 145 -50 4 -73 1 -99 -13z"/>
<path d="M3337 7463 c-10 -9 -8 -43 2 -43 5 0 9 11 9 25 0 27 -1 28 -11 18z"/>
<path d="M3404 7297 c-8 -18 -8 -24 3 -24 7 0 13 11 13 24 0 29 -2 29 -16 0z"/>
<path d="M5532 6238 c3 -199 7 -250 20 -280 19 -43 45 -49 73 -18 10 11 24 20
32 20 17 0 17 -1 -8 55 -12 26 -22 73 -24 104 -1 31 -4 58 -5 61 -1 3 -2 8 -1
12 0 4 -8 9 -18 13 -25 8 -31 36 -15 66 7 13 14 33 14 44 0 17 2 17 10 5 8
-13 10 -13 10 2 0 22 -17 32 -27 16 -4 -7 -17 -18 -28 -24 -19 -10 -21 -9 -23
17 -1 15 2 31 8 34 7 4 7 12 0 25 -14 26 -13 67 2 72 7 3 5 7 -6 11 -17 7 -18
-6 -14 -235z m23 32 c3 -5 1 -10 -4 -10 -6 0 -11 5 -11 10 0 6 2 10 4 10 3 0
8 -4 11 -10z m55 -104 c0 -2 -7 -7 -16 -10 -8 -3 -12 -2 -9 4 6 10 25 14 25 6z"/>
<path d="M5562 6349 c-7 -11 -11 -23 -9 -25 7 -7 29 24 25 36 -2 6 -9 1 -16
-11z"/>
<path d="M5590 6240 c0 -5 5 -10 11 -10 5 0 7 -4 4 -10 -3 -5 -1 -10 4 -10 13
0 13 3 5 24 -7 18 -24 22 -24 6z"/>
<path d="M6762 6125 c0 -16 2 -22 5 -12 2 9 2 23 0 30 -3 6 -5 -1 -5 -18z"/>
<path d="M6763 6035 c-1 -33 1 -52 4 -42 2 9 12 17 21 17 14 0 14 1 0 13 -9 6
-19 26 -21 42 -2 17 -4 3 -4 -30z"/>
<path d="M2255 5990 c3 -5 2 -10 -3 -10 -15 0 -23 -28 -10 -36 6 -4 8 -3 5 3
-4 6 4 14 18 17 23 6 24 8 11 21 -17 17 -30 20 -21 5z"/>
<path d="M6840 5962 c0 -12 -5 -21 -11 -19 -17 3 -21 -62 -5 -78 11 -12 14 -4
20 47 3 34 4 64 1 66 -3 3 -5 -4 -5 -16z"/>
<path d="M2499 5917 c6 -8 7 -18 3 -23 -4 -4 1 -2 11 5 18 14 24 26 7 16 -5
-3 -10 -1 -10 4 0 6 -5 11 -11 11 -8 0 -9 -4 0 -13z"/>
<path d="M2660 5920 c0 -5 5 -10 11 -10 5 0 7 5 4 10 -3 6 -8 10 -11 10 -2 0
-4 -4 -4 -10z"/>
<path d="M2412 5908 c-7 -7 -12 -21 -12 -33 0 -18 6 -21 41 -22 24 0 36 3 29
7 -7 5 -19 6 -27 3 -9 -4 -11 0 -7 11 5 12 2 15 -11 10 -15 -6 -16 -4 -6 14
13 25 11 28 -7 10z"/>
<path d="M2541 5865 c-11 -19 -16 -35 -11 -35 5 0 14 8 19 18 9 15 12 15 21 2
6 -9 10 -10 10 -3 0 6 -4 14 -10 18 -5 3 -7 12 -3 20 10 27 -5 15 -26 -20z"/>
<path d="M2588 5836 c-10 -7 -15 -16 -12 -19 4 -3 13 1 21 9 20 19 13 26 -9
10z"/>
<path d="M2785 5830 c-3 -5 -1 -10 4 -10 6 0 11 5 11 10 0 6 -2 10 -4 10 -3 0
-8 -4 -11 -10z"/>
<path d="M2600 5781 c-6 -14 -9 -23 -5 -19 4 4 17 2 28 -4 16 -8 19 -8 14 5
-3 9 1 18 9 21 8 3 14 0 14 -6 0 -9 3 -9 12 0 15 15 5 25 -31 27 -23 1 -32 -4
-41 -24z"/>
<path d="M2705 5790 c3 -5 11 -10 16 -10 6 0 7 5 4 10 -3 6 -11 10 -16 10 -6
0 -7 -4 -4 -10z"/>
<path d="M2745 5780 c3 -5 8 -10 11 -10 2 0 4 5 4 10 0 6 -5 10 -11 10 -5 0
-7 -4 -4 -10z"/>
<path d="M2804 5755 c3 -8 1 -15 -5 -15 -6 0 -7 -5 -3 -12 5 -8 0 -9 -14 -6
-28 8 -28 2 -1 -12 15 -8 24 -8 34 0 10 8 14 8 18 -2 4 -8 6 -7 6 5 1 9 -3 17
-9 17 -5 0 -10 9 -10 20 0 11 -5 20 -11 20 -6 0 -9 -7 -5 -15z"/>
<path d="M3010 5765 c0 -15 18 -40 24 -34 3 3 -1 14 -9 25 -8 10 -14 15 -15 9z"/>
<path d="M2716 5737 c-25 -19 -11 -50 20 -43 17 5 24 2 24 -8 0 -10 6 -13 15
-10 21 8 19 18 -7 29 -14 6 -22 17 -20 28 3 20 -8 22 -32 4z m9 -17 c3 -5 1
-10 -4 -10 -6 0 -11 5 -11 10 0 6 2 10 4 10 3 0 8 -4 11 -10z"/>
<path d="M2850 5740 c0 -5 7 -10 16 -10 8 0 12 5 9 10 -3 6 -10 10 -16 10 -5
0 -9 -4 -9 -10z"/>
<path d="M3198 5733 c10 -4 10 -8 1 -19 -7 -8 -7 -14 -1 -14 12 0 23 26 15 34
-4 3 -11 6 -17 5 -6 0 -5 -3 2 -6z"/>
<path d="M2887 5703 c6 -16 11 -16 28 1 12 12 11 14 -9 12 -14 0 -22 -6 -19
-13z"/>
<path d="M3000 5700 c0 -5 7 -10 16 -10 8 0 12 5 9 10 -3 6 -10 10 -16 10 -5
0 -9 -4 -9 -10z"/>
<path d="M3249 5683 c-13 -16 -12 -17 4 -4 9 7 17 15 17 17 0 8 -8 3 -21 -13z"/>
<path d="M3282 5687 c-8 -10 -6 -13 9 -13 10 0 19 6 19 13 0 7 -4 13 -9 13 -5
0 -13 -6 -19 -13z"/>
<path d="M3445 5679 c-4 -6 -5 -12 -2 -15 2 -3 7 2 10 11 7 17 1 20 -8 4z"/>
<path d="M3206 5667 c3 -10 9 -15 12 -12 3 3 0 11 -7 18 -10 9 -11 8 -5 -6z"/>
<path d="M3385 5670 c-3 -5 -1 -10 4 -10 6 0 11 5 11 10 0 6 -2 10 -4 10 -3 0
-8 -4 -11 -10z"/>
<path d="M3040 5659 c0 -13 35 -16 47 -4 8 9 4 12 -18 12 -16 0 -29 -4 -29 -8z"/>
<path d="M3706 5647 c3 -10 9 -15 12 -12 3 3 0 11 -7 18 -10 9 -11 8 -5 -6z"/>
<path d="M3315 5630 c-3 -5 -1 -10 4 -10 6 0 11 5 11 10 0 6 -2 10 -4 10 -3 0
-8 -4 -11 -10z"/>
<path d="M3425 5615 c0 -14 5 -21 13 -18 6 3 12 9 12 13 0 4 -6 12 -12 18 -10
8 -13 5 -13 -13z"/>
<path d="M3340 5598 c-13 -13 -18 -15 -11 -5 16 20 -1 24 -18 4 -8 -11 -5 -17
15 -26 15 -6 29 -9 33 -6 4 5 10 55 6 55 0 0 -11 -10 -25 -22z"/>
<path d="M3540 5608 c0 -4 12 -8 26 -8 14 0 23 4 19 9 -6 11 -45 10 -45 -1z"/>
<path d="M3690 5602 c-15 -5 -40 -27 -40 -35 0 -10 40 5 51 19 14 17 10 23
-11 16z"/>
<path d="M3783 5562 c2 -26 10 -28 28 -5 12 14 12 15 0 9 -8 -5 -16 -3 -22 5
-6 10 -8 7 -6 -9z"/>
<path d="M3665 5551 c-3 -5 -2 -12 3 -15 5 -3 9 1 9 9 0 17 -3 19 -12 6z"/>
<path d="M3890 5551 c0 -7 -5 -9 -12 -5 -7 5 -8 3 -3 -5 5 -9 10 -10 18 -2 6
6 8 14 4 18 -4 3 -7 1 -7 -6z"/>
<path d="M4090 5525 c-26 -27 -22 -43 7 -26 10 6 14 11 10 11 -4 0 -3 9 3 20
14 27 8 25 -20 -5z"/>
<path d="M4240 5540 c0 -5 5 -10 10 -10 6 0 10 5 10 10 0 6 -4 10 -10 10 -5 0
-10 -4 -10 -10z"/>
<path d="M3840 5500 c0 -5 5 -10 10 -10 6 0 10 5 10 10 0 6 -4 10 -10 10 -5 0
-10 -4 -10 -10z"/>
<path d="M4128 5443 c6 -2 18 -2 25 0 6 3 1 5 -13 5 -14 0 -19 -2 -12 -5z"/>
<path d="M4088 5413 c7 -3 16 -2 19 1 4 3 -2 6 -13 5 -11 0 -14 -3 -6 -6z"/>
<path d="M18291 6914 c0 -11 3 -14 6 -6 3 7 2 16 -1 19 -3 4 -6 -2 -5 -13z"/>
<path d="M18291 6864 c0 -11 3 -14 6 -6 3 7 2 16 -1 19 -3 4 -6 -2 -5 -13z"/>
<path d="M18291 6824 c0 -11 3 -14 6 -6 3 7 2 16 -1 19 -3 4 -6 -2 -5 -13z"/>
<path d="M18293 6755 c0 -22 2 -30 4 -17 2 12 2 30 0 40 -3 9 -5 -1 -4 -23z"/>
<path d="M16972 6350 c0 -14 2 -19 5 -12 2 6 2 18 0 25 -3 6 -5 1 -5 -13z"/>
<path d="M16972 6235 c0 -16 2 -22 5 -12 2 9 2 23 0 30 -3 6 -5 -1 -5 -18z"/>
<path d="M17035 6170 c3 -5 8 -10 11 -10 2 0 4 5 4 10 0 6 -5 10 -11 10 -5 0
-7 -4 -4 -10z"/>
<path d="M17000 6106 c0 -2 7 -9 15 -16 9 -7 15 -8 15 -2 0 5 -7 12 -15 16 -8
3 -15 4 -15 2z"/>
<path d="M17000 6072 c0 -7 5 -12 11 -12 6 0 9 -6 6 -13 -3 -9 2 -13 14 -12
22 1 39 15 19 15 -7 0 -22 7 -32 17 -11 9 -18 11 -18 5z"/>
<path d="M17040 6070 c0 -5 5 -10 11 -10 5 0 7 5 4 10 -3 6 -8 10 -11 10 -2 0
-4 -4 -4 -10z"/>
<path d="M7532 5850 c0 -14 2 -19 5 -12 2 6 2 18 0 25 -3 6 -5 1 -5 -13z"/>
<path d="M7600 5850 c0 -5 5 -10 10 -10 6 0 10 5 10 10 0 6 -4 10 -10 10 -5 0
-10 -4 -10 -10z"/>
<path d="M7531 5744 c0 -11 3 -14 6 -6 3 7 2 16 -1 19 -3 4 -6 -2 -5 -13z"/>
<path d="M7600 5745 c0 -8 5 -15 10 -15 6 0 10 7 10 15 0 8 -4 15 -10 15 -5 0
-10 -7 -10 -15z"/>
<path d="M7605 5630 c3 -5 8 -10 11 -10 2 0 4 5 4 10 0 6 -5 10 -11 10 -5 0
-7 -4 -4 -10z"/>
<path d="M8423 5585 c0 -27 2 -38 4 -22 2 15 2 37 0 50 -2 12 -4 0 -4 -28z"/>
<path d="M8366 5558 c10 -14 21 -24 23 -22 3 3 -6 15 -18 27 l-24 22 19 -27z"/>
<path d="M8255 5550 c10 -11 20 -20 23 -20 3 0 -3 9 -13 20 -10 11 -20 20 -23
20 -3 0 3 -9 13 -20z"/>
<path d="M8290 5507 c0 -2 15 -16 33 -33 l32 -29 -29 33 c-28 30 -36 37 -36
29z"/>
<path d="M8424 5353 c42 -51 78 -93 79 -93 1 0 0 37 -2 82 -3 46 -6 72 -9 58
-2 -14 -8 -29 -14 -35 -6 -7 -8 -5 -6 5 2 11 -6 15 -29 16 -22 0 -44 10 -65
30 -17 16 3 -13 46 -63z"/>
<path d="M15755 5860 c-3 -5 -1 -10 4 -10 6 0 11 5 11 10 0 6 -2 10 -4 10 -3
0 -8 -4 -11 -10z"/>
<path d="M15814 5755 c23 -18 36 -19 36 -4 0 5 -4 8 -9 4 -5 -3 -12 -1 -16 5
-3 5 -12 10 -18 10 -7 0 -3 -7 7 -15z"/>
<path d="M15759 5745 c-8 -35 -4 -125 6 -124 6 1 9 6 7 13 -2 7 1 7 9 -1 7 -7
10 -16 6 -19 -7 -8 -118 -7 -217 2 -59 5 -63 4 -47 -10 21 -17 15 -52 -12 -73
-14 -11 -11 -12 15 -13 17 0 46 -3 63 -6 19 -4 31 -2 31 4 0 5 -9 8 -20 5 -14
-4 -20 0 -20 10 0 10 6 13 20 10 13 -3 20 0 20 8 1 9 4 8 11 -4 6 -9 16 -15
22 -11 7 3 3 -2 -7 -10 -19 -15 -18 -16 12 -16 30 0 32 2 22 20 -6 11 -17 20
-25 20 -8 0 -15 5 -15 11 0 7 -10 9 -25 7 -19 -4 -25 -1 -25 12 0 14 8 17 43
15 65 -2 94 -26 88 -72 -1 -9 17 -13 64 -13 l65 0 0 59 c0 53 -2 59 -19 54
-23 -6 -32 7 -24 35 4 17 9 20 23 12 15 -8 18 -5 18 15 0 18 -6 25 -20 25 -12
0 -16 4 -12 11 4 7 1 10 -7 7 -8 -3 -13 -13 -11 -23 3 -16 2 -16 -11 -3 -8 8
-17 26 -19 39 -3 21 -4 22 -9 4z"/>
<path d="M15780 5739 c0 -5 5 -7 10 -4 6 3 10 8 10 11 0 2 -4 4 -10 4 -5 0
-10 -5 -10 -11z"/>
<path d="M15408 5585 c-45 -33 -66 -55 -52 -55 3 0 21 12 38 28 17 15 43 35
56 44 14 9 21 17 15 17 -5 0 -31 -15 -57 -34z"/>
<path d="M15484 5601 c4 -5 0 -11 -6 -14 -10 -4 -11 -7 0 -18 8 -9 15 -10 22
-3 12 12 3 44 -12 44 -5 0 -7 -4 -4 -9z"/>
<path d="M15426 5535 c-19 -14 -17 -15 18 -15 33 0 37 2 26 15 -15 18 -20 18
-44 0z"/>
<path d="M9523 5560 c0 -25 2 -35 4 -22 2 12 2 32 0 45 -2 12 -4 2 -4 -23z"/>
<path d="M9007 5509 c7 -7 15 -10 18 -7 3 3 -2 9 -12 12 -14 6 -15 5 -6 -5z"/>
<path d="M9117 5483 c18 -2 50 -2 70 0 21 2 7 4 -32 4 -38 0 -55 -2 -38 -4z"/>
<path d="M21070 6065 c0 -8 5 -15 10 -15 6 0 10 7 10 15 0 8 -4 15 -10 15 -5
0 -10 -7 -10 -15z"/>
<path d="M12062 4357 c-56 -151 -102 -277 -102 -280 0 -4 92 -7 205 -7 145 0
205 3 205 11 0 17 -194 549 -200 549 -3 0 -51 -123 -108 -273z"/>
<path d="M8506 9228 c15 -31 15 -37 0 -69 -9 -19 -36 -62 -61 -97 -35 -49 -45
-72 -45 -103 0 -56 35 -123 99 -192 l56 -59 0 64 c1 56 6 73 53 162 28 54 52
107 52 118 0 42 -74 141 -142 190 l-28 20 16 -34z"/>
<path d="M14800 9192 c-49 -49 -71 -80 -79 -110 -11 -40 -10 -45 41 -142 48
-92 53 -108 53 -167 l0 -65 56 60 c118 125 128 218 36 328 -13 16 -32 44 -41
61 -15 29 -15 36 -2 68 8 19 12 35 9 35 -3 0 -36 -31 -73 -68z"/>
<path d="M12266 1505 c-9 -26 -7 -32 5 -12 6 10 9 21 6 23 -2 3 -7 -2 -11 -11z"/>
</g>
</svg>
